<svg width="28" height="28" viewBox="0 0 28 28" fill="none" xmlns="http://www.w3.org/2000/svg">
<path d="M14 25.6667C12.4056 25.6667 10.8987 25.3602 9.47921 24.7473C8.05976 24.1352 6.82037 23.2991 5.76104 22.239C4.70093 21.1797 3.86482 19.9403 3.25271 18.5208C2.63982 17.1014 2.33337 15.5944 2.33337 14C2.33337 12.3861 2.63982 10.8745 3.25271 9.46516C3.86482 8.05505 4.70093 6.82033 5.76104 5.761C6.82037 4.70088 8.05976 3.86438 9.47921 3.25149C10.8987 2.63938 12.4056 2.33333 14 2.33333C15.6139 2.33333 17.1255 2.63938 18.5349 3.25149C19.945 3.86438 21.1797 4.70088 22.239 5.761C23.2992 6.82033 24.1353 8.05505 24.7474 9.46516C25.3603 10.8745 25.6667 12.3861 25.6667 14C25.6667 15.5944 25.3603 17.1014 24.7474 18.5208C24.1353 19.9403 23.2992 21.1797 22.239 22.239C21.1797 23.2991 19.945 24.1352 18.5349 24.7473C17.1255 25.3602 15.6139 25.6667 14 25.6667ZM14 23.275C14.5056 22.575 14.9431 21.8458 15.3125 21.0875C15.682 20.3292 15.9834 19.5222 16.2167 18.6667H11.7834C12.0167 19.5222 12.3181 20.3292 12.6875 21.0875C13.057 21.8458 13.4945 22.575 14 23.275ZM10.9667 22.8083C10.6167 22.1667 10.3107 21.5005 10.0485 20.8098C9.78565 20.1199 9.56671 19.4056 9.39171 18.6667H5.95004C6.51393 19.6389 7.2186 20.4847 8.06404 21.2042C8.91026 21.9236 9.87782 22.4583 10.9667 22.8083ZM17.0334 22.8083C18.1223 22.4583 19.0894 21.9236 19.9349 21.2042C20.7811 20.4847 21.4862 19.6389 22.05 18.6667H18.6084C18.4334 19.4056 18.2148 20.1199 17.9527 20.8098C17.6898 21.5005 17.3834 22.1667 17.0334 22.8083ZM4.95837 16.3333H8.92504C8.86671 15.9444 8.82276 15.5602 8.79321 15.1807C8.76443 14.8019 8.75004 14.4083 8.75004 14C8.75004 13.5917 8.76443 13.1981 8.79321 12.8193C8.82276 12.4398 8.86671 12.0556 8.92504 11.6667H4.95837C4.86115 12.0556 4.78804 12.4398 4.73904 12.8193C4.69082 13.1981 4.66671 13.5917 4.66671 14C4.66671 14.4083 4.69082 14.8019 4.73904 15.1807C4.78804 15.5602 4.86115 15.9444 4.95837 16.3333ZM11.2584 16.3333H16.7417C16.8 15.9444 16.844 15.5602 16.8735 15.1807C16.9023 14.8019 16.9167 14.4083 16.9167 14C16.9167 13.5917 16.9023 13.1981 16.8735 12.8193C16.844 12.4398 16.8 12.0556 16.7417 11.6667H11.2584C11.2 12.0556 11.1565 12.4398 11.1277 12.8193C11.0982 13.1981 11.0834 13.5917 11.0834 14C11.0834 14.4083 11.0982 14.8019 11.1277 15.1807C11.1565 15.5602 11.2 15.9444 11.2584 16.3333ZM19.075 16.3333H23.0417C23.1389 15.9444 23.212 15.5602 23.261 15.1807C23.3093 14.8019 23.3334 14.4083 23.3334 14C23.3334 13.5917 23.3093 13.1981 23.261 12.8193C23.212 12.4398 23.1389 12.0556 23.0417 11.6667H19.075C19.1334 12.0556 19.1769 12.4398 19.2057 12.8193C19.2353 13.1981 19.25 13.5917 19.25 14C19.25 14.4083 19.2353 14.8019 19.2057 15.1807C19.1769 15.5602 19.1334 15.9444 19.075 16.3333ZM18.6084 9.33333H22.05C21.4862 8.36111 20.7811 7.51527 19.9349 6.79583C19.0894 6.07638 18.1223 5.54166 17.0334 5.19166C17.3834 5.83333 17.6898 6.49911 17.9527 7.18899C18.2148 7.87966 18.4334 8.59444 18.6084 9.33333ZM11.7834 9.33333H16.2167C15.9834 8.47777 15.682 7.67083 15.3125 6.9125C14.9431 6.15416 14.5056 5.42499 14 4.725C13.4945 5.42499 13.057 6.15416 12.6875 6.9125C12.3181 7.67083 12.0167 8.47777 11.7834 9.33333ZM5.95004 9.33333H9.39171C9.56671 8.59444 9.78565 7.87966 10.0485 7.18899C10.3107 6.49911 10.6167 5.83333 10.9667 5.19166C9.87782 5.54166 8.91026 6.07638 8.06404 6.79583C7.2186 7.51527 6.51393 8.36111 5.95004 9.33333Z" fill="white"/>
</svg>
